<?xml version="1.0" encoding="UTF-8"?><svg id="b" xmlns="http://www.w3.org/2000/svg" viewBox="0 0 195.79 58.64"><g id="c"><g><path d="M64.38,16.96v9.62c-.76-.17-1.4-.23-2.22-.23-6.06,0-9.33,3.96-9.33,9.44v11.78h-10.09V17.25h10.09v8.28c.99-5.01,3.91-8.86,9.27-8.86,.7,0,1.46,.06,2.27,.29Z"/><path d="M98.72,6.17V47.57h-10.09v-2.86h-.17c-.23,.52-3.09,3.44-8.4,3.44-6.76,0-14.34-5.13-14.34-15.74s7.58-15.74,14.34-15.74c5.31,0,8.16,2.92,8.4,3.44h.17V6.17h10.09Zm-9.85,26.24c0-4.31-3.03-6.82-6.65-6.82s-6.59,2.56-6.59,6.82,3.09,6.82,6.59,6.82,6.65-2.51,6.65-6.82Z"/><path d="M102.39,32.41c0-10.61,7.58-15.74,14.34-15.74,5.31,0,8.16,2.92,8.4,3.44h.18v-2.86h10.09v30.32h-10.09v-2.86h-.18c-.23,.52-3.09,3.44-8.4,3.44-6.76,0-14.34-5.13-14.34-15.74Zm23.15,0c0-4.31-3.03-6.82-6.65-6.82s-6.59,2.56-6.59,6.82,3.09,6.82,6.59,6.82,6.65-2.51,6.65-6.82Z"/><path d="M152.71,17.25h7.4v7.93h-7.4v22.39h-10.09V25.18h-4.14v-7.93h4.14v-.93c0-10.09,7.11-11.49,11.49-11.49,1.4,0,3.96-.06,6,1.17v7.75c-1.75-.7-3.15-.47-3.21-.47-3.03,0-4.14,1.75-4.2,3.96Z"/><path d="M195.79,17.25l-17.26,41.39h-9.85l4.96-11.37-12.54-30.03h10.26l7.11,18.54,7.05-18.54h10.26Z"/><path d="M0,29.35c0,10.94,8.9,19.85,19.85,19.85,8.64,0,16.97-6.13,19-14.63,1.68-7.05-.96-14.56-5.31-20.35C29.51,8.88,23.47,3.19,17.56,0c-.38,.38-.39,.82-.51,1.37,0,.04-.98,4.53-4.43,5.09l-3.05,.5,2.67,1.55c.69,.4,1.07,.64,1.74,1.08,.28,.18,.57,.37,.85,.56C6.22,12.38,0,20.22,0,29.35Zm19.85-10.28c2.94,0,5.73,1.26,7.69,3.45l.02,.04,.14,.14c.49,.57,.95,1.26,1.32,1.99,.74,1.45,1.12,3.02,1.12,4.66,0,5.67-4.61,10.29-10.28,10.29-5.67,0-10.28-4.61-10.28-10.29,0-5.67,4.61-10.28,10.28-10.28Z" style="fill:#f9a000;"/><path d="M19.75,26.64c1.44,0,2.63,1.12,2.71,2.55v.03s0,.03,0,.03c0,.04,0,.07,0,.11,0,1.5-1.22,2.71-2.71,2.71-.07,0-.13,0-.2,0h-.02s-.02,0-.02,0c-.73-.06-1.39-.41-1.86-.99-.28-.34-.61-.91-.61-1.71,0-.96,.49-1.83,1.32-2.33,.42-.25,.9-.38,1.39-.38m0-3.93c-1.25,0-2.42,.35-3.42,.95-1.93,1.16-3.22,3.28-3.22,5.69,0,1.6,.56,3.06,1.5,4.2,1.11,1.35,2.73,2.26,4.58,2.42,.19,.02,.37,.03,.56,.03,3.67,0,6.64-2.98,6.64-6.64,0-.13,0-.25-.01-.38-.19-3.49-3.09-6.26-6.63-6.26h0Z" style="fill:#f9a000;"/></g></g></svg>